<svg width="30" height="30" viewBox="0 0 30 30" fill="none" xmlns="http://www.w3.org/2000/svg">
<path d="M12.9198 20.8077H2.45107C2.20774 20.8077 2.00959 20.6095 2.00959 20.3661V3.33394C2.00959 3.09068 2.2078 2.89247 2.45107 2.89247H27.5479C27.7913 2.89247 27.9894 3.09068 27.9894 3.33394V7.06419C28.7244 7.15098 29.4132 7.39187 29.9989 7.78785V3.33394C29.9989 1.98234 28.899 0.882874 27.5479 0.882874H2.45107C1.0999 0.882874 0 1.98228 0 3.33394V20.3661C0 21.7177 1.0999 22.8173 2.45107 22.8173H10.8631V26.1029H9.53657C8.70449 26.1029 8.02938 26.7775 8.02938 27.6101C8.02938 28.4427 8.70449 29.1173 9.53657 29.1173H13.7676C13.2388 28.3736 12.9199 27.4708 12.9199 26.4905L12.9198 20.8077Z" fill="white"/>
<path d="M21.3544 27.5973V25.4263H16.9389V11.5601C16.9389 11.2676 17.1763 11.0297 17.4687 11.0297H27.4596C27.752 11.0297 27.9894 11.2676 27.9894 11.5601V15.8515H28.7421C29.2023 15.8515 29.6281 15.9844 29.9989 16.2013V11.5601C29.9989 10.1593 28.8598 9.02014 27.4596 9.02014H17.4687C16.0686 9.02014 14.9294 10.1593 14.9294 11.5601V26.4904C14.9294 27.8912 16.0685 29.0303 17.4687 29.0303H21.8077C21.531 28.633 21.3544 28.0793 21.3544 27.5973Z" fill="white"/>
<path d="M28.7421 17.1075H23.8684C23.1745 17.1075 22.6104 17.6722 22.6104 18.3659V27.5972C22.6104 28.2909 23.1745 28.8552 23.8684 28.8552H28.7421C29.4359 28.8552 30 28.2909 30 27.5972V18.3658C30 17.6721 29.4358 17.1075 28.7421 17.1075ZM24.1175 18.6146H28.4928V26.5944H24.1175V18.6146ZM26.3058 28.2439C26.1674 28.2439 26.0438 28.1879 25.9496 28.1016C25.8425 28.0044 25.7739 27.8679 25.7739 27.7124C25.7739 27.4191 26.0114 27.1816 26.3058 27.1816C26.5981 27.1816 26.8356 27.4191 26.8356 27.7124C26.8356 27.8679 26.7669 28.0043 26.6609 28.1016C26.5666 28.1879 26.443 28.2439 26.3058 28.2439Z" fill="white"/>
</svg>
