<svg width="38" height="38" viewBox="0 0 38 38" fill="none" xmlns="http://www.w3.org/2000/svg">
<g clip-path="url(#clip0_15_92)">
<path d="M36.6667 31.6393L25.6393 22.323C28.8407 17.58 28.3479 11.0709 24.153 6.87589C19.3943 2.11713 11.655 2.11713 6.89626 6.87589C2.12963 11.6424 2.12963 19.3581 6.89626 24.1286C11.0872 28.3196 17.5964 28.8242 22.3512 25.615L31.6636 36.6385C32.9883 38.2195 35.413 38.3338 36.8875 36.8593C38.3463 35.3966 38.2595 32.9877 36.6667 31.6393ZM7.45609 23.5727C2.99309 19.1097 2.99309 11.8948 7.45609 7.43172C11.9073 2.98453 19.1459 2.98453 23.5931 7.43172C28.0561 11.8948 28.0246 19.1373 23.5931 23.5727C19.1695 27.9964 11.927 28.0436 7.45609 23.5727Z" fill="white"/>
<path d="M24.1765 14.9188C21.8859 11.8476 18.8304 10.1602 15.5778 10.1602C12.3291 10.1602 9.28143 11.8555 6.99081 14.9346C6.88832 15.0727 6.88832 15.2659 6.99081 15.4038C9.27356 18.479 12.3251 20.1704 15.5778 20.1704H15.5856C18.8422 20.1665 21.8938 18.4711 24.1765 15.392C24.283 15.25 24.283 15.0608 24.1765 14.9188ZM15.5856 18.5184C13.7326 18.5184 12.2266 17.0123 12.2266 15.1672C12.2266 13.3142 13.7326 11.8082 15.5856 11.8082C17.4347 11.8082 18.9408 13.3143 18.9408 15.1672C18.9408 17.0123 17.4347 18.5184 15.5856 18.5184Z" fill="white"/>
<path d="M18.1522 15.1672C18.1522 16.5787 17.001 17.7299 15.5856 17.7299C14.1702 17.7299 13.015 16.5787 13.015 15.1672C13.015 13.7479 14.1702 12.5967 15.5856 12.5967C17.0009 12.5967 18.1522 13.7479 18.1522 15.1672Z" fill="white"/>
<path d="M0.469812 31.1197H6.19853C6.41644 31.1197 6.59279 30.9431 6.59279 30.7254C6.59279 30.5078 6.41644 30.3312 6.19853 30.3312H0.864062V24.9923C0.864062 24.7746 0.687718 24.5981 0.469812 24.5981C0.251905 24.5981 0.0755615 24.7747 0.0755615 24.9923V30.7254C0.0755615 30.9431 0.251905 31.1197 0.469812 31.1197Z" fill="white"/>
<path d="M0.469811 6.62332C0.687718 6.62332 0.864061 6.44675 0.864061 6.22907V0.890368H6.20276C6.42067 0.890368 6.59701 0.713801 6.59701 0.496118C6.59701 0.278434 6.42067 0.101868 6.20276 0.101868H0.469811C0.251905 0.101868 0.0755615 0.278434 0.0755615 0.496118V6.22907C0.0755615 6.44675 0.251905 6.62332 0.469811 6.62332Z" fill="white"/>
<path d="M30.6992 6.62332C30.9171 6.62332 31.0935 6.44675 31.0935 6.22907V0.496118C31.0935 0.27836 30.9171 0.101868 30.6992 0.101868H24.9663C24.7484 0.101868 24.572 0.278434 24.572 0.496118C24.572 0.713801 24.7484 0.890368 24.9663 0.890368H30.305V6.22907C30.305 6.44675 30.4813 6.62332 30.6992 6.62332Z" fill="white"/>
</g>
<defs>
<clipPath id="clip0_15_92">
<rect width="38" height="38" fill="white"/>
</clipPath>
</defs>
</svg>
